HIERARCHY
ROOT Hips
{
	OFFSET 0.000000 0.000000 0.000000
	CHANNELS 6 Xposition Yposition Zposition Zrotation Yrotation Xrotation 
	JOINT LowerBack
	{
		OFFSET 0.000000 0.000000 0.000000
		CHANNELS 3 Zrotation Yrotation Xrotation
		JOINT Spine
		{
			OFFSET 0.028270 2.035590 -0.193380
			CHANNELS 3 Zrotation Yrotation Xrotation
			JOINT Spine1
			{
				OFFSET 0.056720 2.048850 -0.042750
				CHANNELS 3 Zrotation Yrotation Xrotation
				JOINT Neck
				{
					OFFSET 0.000000 0.000000 0.000000
					CHANNELS 3 Zrotation Yrotation Xrotation
					JOINT Neck1
					{
						OFFSET -0.054170 1.746240 0.172020
						CHANNELS 3 Zrotation Yrotation Xrotation
						JOINT Head
						{
							OFFSET 0.104070 1.761360 -0.123970
							CHANNELS 3 Zrotation Yrotation Xrotation
							End Site
							{
								OFFSET 0.000000 0.000000 0.000000
							}
						}
					}
				}
				JOINT LeftShoulder
				{
					OFFSET 0.000000 0.000000 0.000000
					CHANNELS 3 Zrotation Yrotation Xrotation
					JOINT LeftArm
					{
						OFFSET 3.362410 1.200890 -0.311210
						CHANNELS 3 Zrotation Yrotation Xrotation
						JOINT LeftForeArm
						{
							OFFSET 4.983000 -0.000000 -0.000000
							CHANNELS 3 Zrotation Yrotation Xrotation
							JOINT LeftHand
							{
								OFFSET 3.483560 -0.000000 -0.000000
								CHANNELS 3 Zrotation Yrotation Xrotation
								JOINT LeftFingerBase
								{
									OFFSET 0.000000 0.000000 0.000000
									CHANNELS 3 Zrotation Yrotation Xrotation
									JOINT LeftHandIndex1
									{
										OFFSET 0.715260 -0.000000 -0.000000
										CHANNELS 3 Zrotation Yrotation Xrotation
										End Site
										{
											OFFSET 0.000000 0.000000 0.000000
										}
									}
								}
								JOINT LThumb
								{
									OFFSET 0.000000 0.000000 0.000000
									CHANNELS 3 Zrotation Yrotation Xrotation
									End Site
									{
										OFFSET 0.000000 0.000000 0.000000
									}
								}
							}
						}
					}
				}
				JOINT RightShoulder
				{
					OFFSET 0.000000 0.000000 0.000000
					CHANNELS 3 Zrotation Yrotation Xrotation
					JOINT RightArm
					{
						OFFSET -3.136600 1.374050 -0.404650
						CHANNELS 3 Zrotation Yrotation Xrotation
						JOINT RightForeArm
						{
							OFFSET -5.241900 -0.000000 -0.000000
							CHANNELS 3 Zrotation Yrotation Xrotation
							JOINT RightHand
							{
								OFFSET -3.444170 -0.000000 -0.000000
								CHANNELS 3 Zrotation Yrotation Xrotation
								JOINT RightFingerBase
								{
									OFFSET 0.000000 0.000000 0.000000
									CHANNELS 3 Zrotation Yrotation Xrotation
									JOINT RightHandIndex1
									{
										OFFSET -0.622530 -0.000000 -0.000000
										CHANNELS 3 Zrotation Yrotation Xrotation
										End Site
										{
											OFFSET 0.000000 0.000000 0.000000
										}
									}
								}
								JOINT RThumb
								{
									OFFSET 0.000000 0.000000 0.000000
									CHANNELS 3 Zrotation Yrotation Xrotation
									End Site
									{
										OFFSET 0.000000 0.000000 0.000000
									}
								}
							}
						}
					}
				}
			}
		}
	}
}
}
MOTION
Frames: 6
Frame Time: 0.008333
27.030493 16.207257 2.365233 155.666364 -86.400030 -142.969689 -9.177059 1.368326 -5.287159 -2.814570 1.912728 -4.258591 -6.356845 1.769119 -0.296490 10.588769 -2.500786 -8.598678 -3.212549 -0.238096 -0.349932 0.000000 0.000000 0.000000 -4.097646 17.243474 3.064509 -55.043192 16.145089 4.033973 -5.035166 -6.758599 -0.009400 1.503819 4.399682 0.063299 -0.132550 -0.044665 -0.000000 0.000000 0.000000 0.000000 0.000000 0.000000 0.000000 14.078890 5.993295 0.819899 61.642197 34.608331 28.306746 1.349276 61.592805 0.010745 0.836030 7.966612 0.061456 0.015553 -0.408974 -0.000000 0.000000 0.000000 0.000000 0.000000 0.000000 0.000000 
26.889151 16.201502 2.383562 153.904854 -86.184276 -141.568354 -9.374577 1.335827 -5.039177 -2.872120 1.897636 -4.247693 -6.460796 1.752377 -0.436070 10.716900 -2.301068 -8.514626 -3.298573 -0.245341 -0.335648 0.000000 0.000000 0.000000 -4.264279 16.922362 3.079373 -55.251108 14.857824 3.376515 -4.995358 -5.696865 -0.008896 2.143685 4.449727 0.088709 -0.126467 -0.034770 -0.000000 0.000000 0.000000 0.000000 0.000000 0.000000 0.000000 14.478833 6.200160 0.762337 62.843046 33.061268 27.730389 1.393266 60.212973 0.009311 0.554141 8.117113 0.041274 0.019273 -0.404476 0.000000 0.000000 0.000000 0.000000 0.000000 0.000000 0.000000 
26.751305 16.195163 2.402465 152.187931 -85.937499 -140.195219 -9.568554 1.294683 -4.793651 -2.926528 1.873034 -4.236691 -6.557698 1.725133 -0.576093 10.823589 -2.089174 -8.420226 -3.384077 -0.252585 -0.318536 0.000000 0.000000 0.000000 -4.443913 16.547856 3.096122 -55.494111 13.552964 2.751432 -4.952315 -4.703566 -0.008798 2.758274 4.583848 0.115618 -0.120085 -0.024195 -0.000000 0.000000 0.000000 0.000000 0.000000 0.000000 0.000000 14.863414 6.398301 0.711000 64.051208 31.541851 27.050508 1.435838 58.674155 0.007921 0.294655 8.271822 0.022078 0.021995 -0.398873 0.000000 0.000000 0.000000 0.000000 0.000000 0.000000 0.000000 
26.616844 16.188048 2.421794 150.531054 -85.667530 -138.858517 -9.757580 1.243143 -4.555701 -2.977064 1.837134 -4.225760 -6.646820 1.685491 -0.714811 10.910059 -1.873091 -8.316605 -3.468059 -0.259742 -0.298767 0.000000 0.000000 0.000000 -4.634268 16.111257 3.113880 -55.769791 12.247096 2.186056 -4.907971 -3.799407 -0.009018 3.325449 4.767689 0.143428 -0.113633 -0.013296 -0.000000 0.000000 0.000000 0.000000 0.000000 0.000000 0.000000 15.231893 6.576631 0.668879 65.264384 30.068459 26.260862 1.477115 56.970968 0.006584 0.055628 8.425339 0.003870 0.023878 -0.392063 -0.000000 0.000000 0.000000 0.000000 0.000000 0.000000 0.000000 
26.485920 16.180099 2.440854 148.787853 -85.382385 -137.410123 -9.955251 1.176084 -4.325059 -3.026475 1.786021 -4.212331 -6.728331 1.629872 -0.843569 10.986350 -1.671125 -8.212453 -3.549966 -0.266646 -0.279008 0.000000 0.000000 0.000000 -4.819747 15.630390 3.131457 -56.074561 10.915034 1.733290 -4.863581 -2.986043 -0.009451 3.827304 4.965743 0.170539 -0.107312 -0.002377 -0.000000 0.000000 0.000000 0.000000 0.000000 0.000000 0.000000 15.598498 6.713208 0.637394 66.476080 28.673468 25.366895 1.517085 55.100805 0.005275 -0.174633 8.572010 -0.014249 0.025223 -0.384000 -0.000000 0.000000 0.000000 0.000000 0.000000 0.000000 0.000000 
26.358682 16.171421 2.460054 147.128326 -85.087957 -136.018409 -10.145188 1.096476 -4.103774 -3.071225 1.721396 -4.198514 -6.802501 1.559612 -0.969657 11.047748 -1.473333 -8.100773 -3.629245 -0.273357 -0.256955 0.000000 0.000000 0.000000 -5.008582 15.077925 3.149070 -56.403390 9.603444 1.392682 -4.821491 -2.292240 -0.009974 4.247050 5.138922 0.194752 -0.101404 0.008077 -0.000000 0.000000 0.000000 0.000000 0.000000 0.000000 0.000000 15.950678 6.817858 0.618944 67.684690 27.340903 24.339956 1.554349 53.073196 0.003964 -0.402642 8.708186 -0.032679 0.026118 -0.374732 -0.000000 0.000000 0.000000 0.000000 0.000000 0.000000 0.000000 
